<svg width="60" height="60" viewBox="0 0 60 60" fill="none" xmlns="http://www.w3.org/2000/svg">
<path d="M10 18.75L29.0195 8.05156C29.3772 7.85036 29.556 7.74979 29.7455 7.71036C29.9135 7.67549 30.0865 7.67549 30.2545 7.71036C30.444 7.74979 30.6228 7.85036 30.9805 8.05156L50 18.75M10 18.75V40.0803C10 40.5063 10 40.719 10.0625 40.9093C10.1178 41.0775 10.2082 41.232 10.3277 41.3625C10.4628 41.5103 10.6483 41.6148 11.0195 41.8235L30 52.5M10 18.75L30 28.75M50 18.75V40.0803C50 40.5063 50 40.719 49.9375 40.9093C49.8823 41.0775 49.7918 41.232 49.6723 41.3625C49.5373 41.5103 49.3517 41.6148 48.9805 41.8235L30 52.5M50 18.75L30 28.75M30 52.5V28.75" stroke="#0CFFA7" stroke-width="4" stroke-linecap="round" stroke-linejoin="round"/>
<path d="M11 20.3787L29 29.3496V51L11 40.6707V20.3787Z" fill="#0CFFA7"/>
</svg>
